<svg width="36" height="36" viewBox="0 0 36 36" fill="none" xmlns="http://www.w3.org/2000/svg">
<path fill-rule="evenodd" clip-rule="evenodd" d="M18 35C27.3888 35 35 27.3888 35 18C35 8.61116 27.3888 1 18 1C8.61116 1 1 8.61116 1 18C1 27.3888 8.61116 35 18 35Z" stroke="#E5E5E5"/>
<path fill-rule="evenodd" clip-rule="evenodd" d="M16.2251 17.3989C16.2251 17.3989 17.9652 17.2747 17.9652 15.2873C17.9652 13.3055 16.542 12.3333 14.7351 12.3333H8.79169V23.4311H14.7346C14.7346 23.4311 18.365 23.5393 18.365 20.1531C18.3653 20.1531 18.521 17.3989 16.2251 17.3989ZM18.8154 19.4188C18.8154 19.397 18.8211 15.1576 23.2018 15.1576C27.8275 15.1576 27.177 19.9748 27.177 19.9748H21.2617C21.2617 22.0325 23.2686 21.9028 23.2686 21.9028C25.1698 21.9028 25.1033 20.7094 25.1033 20.7094H27.1102C27.1102 23.8794 23.2018 23.6635 23.2018 23.6635C18.5153 23.6635 18.8154 19.4188 18.8154 19.4188ZM23.2465 16.783C21.4839 16.783 21.2393 18.4896 21.2393 18.4896H24.9865C24.9865 18.4896 25.0144 16.783 23.2465 16.783ZM14.7348 14.3043H11.4104V16.783H14.5291C15.0685 16.783 15.5411 16.6155 15.5411 15.4599C15.5411 14.3043 14.7348 14.3043 14.7348 14.3043ZM14.5683 21.46H11.4104V18.4896H14.7348C14.7348 18.4896 15.9415 18.4789 15.9358 20.0179C15.9358 21.3142 15.0409 21.4492 14.5683 21.46ZM20.7445 14.3532V12.9867H25.4591V14.3532H20.7445Z" fill="#666666"/>
</svg>
