<svg width="36" height="36" viewBox="0 0 36 36" fill="none" xmlns="http://www.w3.org/2000/svg">
<path fill-rule="evenodd" clip-rule="evenodd" d="M18 35C27.3888 35 35 27.3888 35 18C35 8.61116 27.3888 1 18 1C8.61116 1 1 8.61116 1 18C1 27.3888 8.61116 35 18 35Z" stroke="#E5E5E5"/>
<path d="M21.7831 10.2115L19.784 10.2083C17.5381 10.2083 16.0867 11.6999 16.0867 14.0087V15.7609H14.0767C13.903 15.7609 13.7623 15.902 13.7623 16.0759V18.6147C13.7623 18.7887 13.9031 18.9296 14.0767 18.9296H16.0867V25.3358C16.0867 25.5098 16.2273 25.6507 16.401 25.6507H19.0235C19.1972 25.6507 19.3378 25.5096 19.3378 25.3358V18.9296H21.688C21.8617 18.9296 22.0024 18.7887 22.0024 18.6147L22.0033 16.0759C22.0033 15.9924 21.9701 15.9124 21.9113 15.8533C21.8524 15.7942 21.7722 15.7609 21.6888 15.7609H19.3378V14.2755C19.3378 13.5616 19.5077 13.1991 20.4361 13.1991L21.7828 13.1986C21.9563 13.1986 22.097 13.0576 22.097 12.8838V10.5263C22.097 10.3527 21.9565 10.2118 21.7831 10.2115Z" fill="#666666"/>
</svg>
