<svg width="36" height="36" viewBox="0 0 36 36" fill="none" xmlns="http://www.w3.org/2000/svg">
<path fill-rule="evenodd" clip-rule="evenodd" d="M18 35C27.3888 35 35 27.3888 35 18C35 8.61116 27.3888 1 18 1C8.61116 1 1 8.61116 1 18C1 27.3888 8.61116 35 18 35Z" stroke="#E5E5E5"/>
<path fill-rule="evenodd" clip-rule="evenodd" d="M14.8125 9.5H21.1875C24.1211 9.5 26.5 11.8789 26.5 14.8125V21.1875C26.5 24.1211 24.1211 26.5 21.1875 26.5H14.8125C11.8789 26.5 9.5 24.1211 9.5 21.1875V14.8125C9.5 11.8789 11.8789 9.5 14.8125 9.5ZM21.1875 24.9062C23.2381 24.9062 24.9062 23.2381 24.9062 21.1875V14.8125C24.9062 12.7619 23.2381 11.0938 21.1875 11.0938H14.8125C12.7619 11.0938 11.0938 12.7619 11.0938 14.8125V21.1875C11.0938 23.2381 12.7619 24.9062 14.8125 24.9062H21.1875Z" fill="#666666"/>
<path fill-rule="evenodd" clip-rule="evenodd" d="M13.75 18C13.75 15.6529 15.6529 13.75 18 13.75C20.3471 13.75 22.25 15.6529 22.25 18C22.25 20.3471 20.3471 22.25 18 22.25C15.6529 22.25 13.75 20.3471 13.75 18ZM15.3438 18C15.3438 19.4641 16.5359 20.6562 18 20.6562C19.4641 20.6562 20.6562 19.4641 20.6562 18C20.6562 16.5348 19.4641 15.3438 18 15.3438C16.5359 15.3438 15.3438 16.5348 15.3438 18Z" fill="#666666"/>
<path d="M22.6042 14.4583C23.191 14.4583 23.6667 13.9826 23.6667 13.3958C23.6667 12.8089 23.191 12.3333 22.6042 12.3333C22.0174 12.3333 21.5417 12.8089 21.5417 13.3958C21.5417 13.9826 22.0174 14.4583 22.6042 14.4583Z" fill="#666666"/>
</svg>
