<svg width="36" height="36" viewBox="0 0 36 36" fill="none" xmlns="http://www.w3.org/2000/svg">
<path fill-rule="evenodd" clip-rule="evenodd" d="M18 35C27.3888 35 35 27.3888 35 18C35 8.61116 27.3888 1 18 1C8.61116 1 1 8.61116 1 18C1 27.3888 8.61116 35 18 35Z" stroke="#E5E5E5"/>
<path d="M22.8088 11.8003C21.7556 10.7737 20.298 10.2083 18.7046 10.2083C16.2706 10.2083 14.7736 11.2213 13.9463 12.071C12.9268 13.1183 12.3422 14.5088 12.3422 15.8861C12.3422 17.6155 13.0547 18.9428 14.2477 19.4366C14.3278 19.47 14.4084 19.4867 14.4874 19.4867C14.7391 19.4867 14.9385 19.3195 15.0076 19.0513C15.0479 18.8974 15.1412 18.5178 15.1818 18.353C15.2686 18.0276 15.1985 17.871 15.0091 17.6444C14.664 17.2299 14.5033 16.7397 14.5033 16.1017C14.5033 14.2068 15.893 12.1928 18.4688 12.1928C20.5125 12.1928 21.7821 13.3722 21.7821 15.2706C21.7821 16.4686 21.5279 17.5781 21.0663 18.3948C20.7455 18.9623 20.1814 19.6387 19.3154 19.6387C18.941 19.6387 18.6046 19.4825 18.3923 19.2103C18.1918 18.9529 18.1257 18.6203 18.2064 18.2738C18.2975 17.8823 18.4217 17.4738 18.5419 17.079C18.7612 16.3579 18.9684 15.6767 18.9684 15.1333C18.9684 14.2038 18.4056 13.5793 17.5681 13.5793C16.5037 13.5793 15.6698 14.677 15.6698 16.0782C15.6698 16.7654 15.8497 17.2794 15.9311 17.4768C15.797 18.0536 15.0001 21.483 14.849 22.1297C14.7616 22.5072 14.235 25.4888 15.1065 25.7266C16.0857 25.9937 16.9609 23.0898 17.05 22.7617C17.1222 22.4948 17.3749 21.4857 17.5297 20.8653C18.0024 21.3276 18.7634 21.6402 19.504 21.6402C20.9001 21.6402 22.1556 21.0023 23.0394 19.8442C23.8965 18.7209 24.3685 17.1552 24.3685 15.4358C24.3685 14.0917 23.8 12.7665 22.8088 11.8003Z" fill="#666666"/>
</svg>
