<svg width="34" height="34" viewBox="0 0 34 34" fill="none" xmlns="http://www.w3.org/2000/svg">
<path fill-rule="evenodd" clip-rule="evenodd" d="M17 34C26.3888 34 34 26.3888 34 17C34 7.61116 26.3888 0 17 0C7.61116 0 0 7.61116 0 17C0 26.3888 7.61116 34 17 34Z" fill="#C9A96E"/>
<path d="M24.7916 12.1344C24.2185 12.3903 23.6019 12.5634 22.9553 12.6407C23.6155 12.2424 24.1221 11.6123 24.3613 10.8602C23.7435 11.2292 23.059 11.4968 22.331 11.6411C21.7478 11.0158 20.9169 10.625 19.9968 10.625C18.2315 10.625 16.7997 12.0665 16.7997 13.8438C16.7997 14.0961 16.8281 14.3416 16.8829 14.5773C14.2258 14.4432 11.8699 13.1618 10.2929 11.2138C10.0178 11.6891 9.85994 12.2424 9.85994 12.8322C9.85994 13.9487 10.4248 14.9343 11.2822 15.5114C10.7583 15.4948 10.265 15.35 9.83419 15.1083C9.83395 15.122 9.83395 15.1357 9.83395 15.1491C9.83395 16.7087 10.9365 18.0095 12.3988 18.305C12.1308 18.3789 11.8477 18.4181 11.5566 18.4181C11.3501 18.4181 11.1501 18.3981 10.9551 18.3607C11.3618 19.6392 12.5423 20.5698 13.9416 20.596C12.8472 21.4594 11.4689 21.9739 9.97057 21.9739C9.71307 21.9739 9.45795 21.9587 9.20831 21.9287C10.6224 22.8423 12.3034 23.375 14.1088 23.375C19.9894 23.375 23.2054 18.4704 23.2054 14.2166C23.2054 14.0771 23.2023 13.9381 23.1961 13.8003C23.8212 13.3466 24.3632 12.7799 24.7916 12.1344V12.1344Z" fill="white"/>
</svg>
